<?xml version="1.0" encoding="UTF-8"?>
<!-- Generator: Adobe Illustrator 16.0.3, SVG Export Plug-In . SVG Version: 6.00 Build 0)  -->
<!DOCTYPE svg PUBLIC "-//W3C//DTD SVG 1.1//EN" "http://www.w3.org/Graphics/SVG/1.1/DTD/svg11.dtd">
<svg version="1.1" id="Ebene_1" xmlns="http://www.w3.org/2000/svg" xmlns:xlink="http://www.w3.org/1999/xlink" x="0px"
     y="0px" width="44px" height="150px" viewBox="0 0 44 150" style="enable-background:new 0 0 44 150;"
     xml:space="preserve">
<style type="text/css">
<![CDATA[
	.st0{fill:#1D1D1D;}
	.st1{fill:#FFFFFF;}
	.st2{fill:#00B5AD;}
]]>
</style>
    <g>
	<rect x="27.921875" y="1" class="st2" width="16.4433594" height="49.3300781"/>
        <rect x="27.921875" y="50.3300781" class="st1" width="16.4433594" height="49.3300781"/>
        <rect x="27.921875" y="99.6601563" class="st0" width="16.4433594" height="49.3300781"/>
        <path class="st0"
              d="M16.0761719,1.0292969c-2.328125,0-1.5195313,3.4697266-3.234375,3.4697266   c-0.6386719,0-1.2050781-0.4399414-1.2050781-1.5561523c0-0.5839844,0.125-1.0786133,0.3398438-1.5908203l-0.5292969-0.1079102   c-0.2246094,0.4760742-0.359375,1.0688477-0.359375,1.7260742c0,1.4477539,0.7734375,2.0947266,1.7890625,2.0947266   c2.2226563,0,1.4296875-3.4609375,3.2363281-3.4609375c0.8730469,0,1.3964844,0.5478516,1.3964844,1.6181641   c0,0.7099609-0.1816406,1.2856445-0.5214844,1.8081055l0.5566406,0.1069336   C17.859375,4.625,18.0664063,3.9960938,18.0664063,3.222168C18.0644531,1.7841797,17.3085938,1.0292969,16.0761719,1.0292969    M17.3808594,9.7651367H14.65625V6.8071289h-0.5058594v2.9580078h-2.3964844V6.3481445l-0.5605469,0.0258789v3.9750977H17.9375   V6.2128906l-0.5566406-0.0268555V9.7651367z M11.4101563,11.6430664c-0.1699219,0.3510742-0.3242188,1.0068359-0.3242188,1.5737305   c0,1.9599609,1.0449219,2.8413086,3.4082031,2.8413086c2.4824219,0,3.5703125-0.8632813,3.5703125-2.8232422   c0-0.6030273-0.1914063-1.2226563-0.40625-1.6279297l-0.5117188,0.1000977   c0.2167969,0.4038086,0.3515625,0.8901367,0.3515625,1.4560547c0,1.5561523-0.71875,2.2851563-3.0039063,2.2851563   c-2.1386719,0-2.8398438-0.7202148-2.8398438-2.2573242c0-0.5581055,0.1347656-1.0981445,0.3046875-1.4658203   L11.4101563,11.6430664z M17.9394531,17.4829102h-6.7441406v0.53125l4.9726563-0.0092773l0.71875-0.0180664l0.0078125,0.0180664   l-0.6113281,0.3959961l-5.0878906,3.3720703v0.5839844h6.7441406v-0.5400391h-5.0898438l-0.7285156,0.0102539l-0.0097656-0.0180664   l0.6113281-0.3959961l5.2167969-3.4892578V17.4829102z M17.3808594,27.2177734H14.65625v-2.956543h-0.5058594v2.956543h-2.3964844   v-3.4145508l-0.5605469,0.0268555v3.9731445H17.9375v-4.1362305l-0.5566406-0.0258789V27.2177734z M17.9394531,29.559082   h-6.7441406v0.59375h6.7441406V29.559082z M11.4101563,31.5068359c-0.1699219,0.3510742-0.3242188,1.0073242-0.3242188,1.5742188   c0,1.9599609,1.0449219,2.8398438,3.4082031,2.8398438c2.4824219,0,3.5703125-0.862793,3.5703125-2.8227539   c0-0.6030273-0.1914063-1.2231445-0.40625-1.6269531l-0.5117188,0.0986328   c0.2167969,0.4042969,0.3515625,0.8901367,0.3515625,1.4560547c0,1.5561523-0.71875,2.2841797-3.0039063,2.2841797   c-2.1386719,0-2.8398438-0.7192383-2.8398438-2.2558594c0-0.559082,0.1347656-1.0981445,0.3046875-1.4672852L11.4101563,31.5068359   z M16.0761719,36.9580078c-2.328125,0-1.5195313,3.4702148-3.234375,3.4702148   c-0.6386719,0-1.2050781-0.4399414-1.2050781-1.5551758c0-0.5849609,0.125-1.0800781,0.3398438-1.5917969l-0.5292969-0.1074219   c-0.2246094,0.4760742-0.359375,1.0693359-0.359375,1.7260742c0,1.4472656,0.7734375,2.0952148,1.7890625,2.0952148   c2.2226563,0,1.4296875-3.4619141,3.2363281-3.4619141c0.8730469,0,1.3964844,0.5478516,1.3964844,1.6186523   c0,0.7089844-0.1816406,1.2851563-0.5214844,1.8071289l0.5566406,0.1079102   c0.3144531-0.5126953,0.5214844-1.1430664,0.5214844-1.9150391C18.0644531,37.7128906,17.3085938,36.9580078,16.0761719,36.9580078    M14.5410156,45.5258789c2.2285156,0,2.8300781,0.7373047,2.8300781,2.2211914v1.6020508h-5.5996094v-1.5922852   C11.7714844,46.1918945,12.4101563,45.5258789,14.5410156,45.5258789 M14.5410156,44.9072266   c-2.3925781,0-3.3457031,0.84375-3.3457031,2.8320313v2.2016602h6.7441406v-2.2109375   C17.9394531,45.8139648,17.0019531,44.9072266,14.5410156,44.9072266 M17.3808594,54.8041992H14.65625v-2.9589844h-0.5058594   v2.9589844h-2.3964844V51.387207l-0.5605469,0.0258789v3.9750977H17.9375v-4.1362305l-0.5566406-0.0268555V54.8041992z    M17.9394531,57.1430664h-6.7441406v0.5942383h6.7441406V57.1430664z M17.3632813,62.3129883h-6.1679688V62.90625h6.7441406   v-3.9101563l-0.5761719-0.0283203V62.3129883z M13.1992188,64.7929688c1.1425781,0,1.5019531,0.5390625,1.5019531,1.5908203   v1.5551758h-2.9746094v-1.5551758C11.7265625,65.3051758,12.1210938,64.7929688,13.1992188,64.7929688 M13.1992188,64.1899414   c-1.4101563,0-2.0039063,0.6650391-2.0039063,2.1938477v2.1494141h6.7441406v-0.5942383h-2.7265625v-1.5551758   C15.2128906,64.8369141,14.5566406,64.1899414,13.1992188,64.1899414 M13.1992188,70.4189453   c1.1425781,0,1.5019531,0.5400391,1.5019531,1.5908203v1.5561523h-2.9746094v-1.5561523   C11.7265625,70.9321289,12.1210938,70.4189453,13.1992188,70.4189453 M13.1992188,69.8168945   c-1.4101563,0-2.0039063,0.6660156-2.0039063,2.1943359v2.1489258h6.7441406V73.565918h-2.7265625v-1.5561523   C15.2128906,70.4638672,14.5566406,69.8168945,13.1992188,69.8168945 M11.6367188,78.25v-0.0292969l0.6894531-0.2246094   l3.3007813-1.1757813v2.8554688l-3.3007813-1.1933594L11.6367188,78.25z M17.9394531,75.9902344v-0.6640625l-6.7441406,2.5644531   v0.6972656l6.7441406,2.5644531v-0.6386719L16.1582031,79.875v-3.2480469L17.9394531,75.9902344z M11.7714844,84.4335938   l-0.5761719,0.0195313v3.9726563h6.7441406v-0.59375h-3.1914063v-2.859375h-0.5410156v2.859375h-2.4355469V84.4335938z    M14.5664063,90.4824219c2.2675781,0,2.9238281,0.5859375,2.9238281,2.0703125c0,1.4921875-0.65625,2.0859375-2.9238281,2.0859375   c-2.2734375,0-2.9121094-0.59375-2.9121094-2.0761719C11.6542969,91.0683594,12.2929688,90.4824219,14.5664063,90.4824219    M14.5664063,89.875c-2.5,0-3.4804688,0.7285156-3.4804688,2.6875c0,1.9511719,0.9804688,2.6875,3.4804688,2.6875   s3.4980469-0.7441406,3.4980469-2.6875C18.0644531,90.6015625,17.0742188,89.875,14.5664063,89.875 M11.1953125,104.2050781   l4.3789063-2.390625h2.3652344v-0.6035156h-2.3652344l-4.3789063-2.3632813v0.6640625l3.15625,1.6640625l0.6445313,0.3125   v0.0292969l-0.6445313,0.3222656l-3.15625,1.671875V104.2050781z M11.7714844,104.8984375l-0.5761719,0.0097656v4.8007813   l0.5761719,0.0175781v-2.1113281h6.1679688v-0.59375h-6.1679688V104.8984375z M17.9394531,110.8242188h-6.7441406v0.59375   h6.7441406V110.8242188z M16.0761719,112.6503906c-2.328125,0-1.5195313,3.4726563-3.234375,3.4726563   c-0.6386719,0-1.2050781-0.4414063-1.2050781-1.5585938c0-0.5839844,0.125-1.078125,0.3398438-1.5917969l-0.5292969-0.1054688   c-0.2246094,0.4765625-0.359375,1.0683594-0.359375,1.7265625c0,1.4492188,0.7734375,2.09375,1.7890625,2.09375   c2.2226563,0,1.4296875-3.4609375,3.2363281-3.4609375c0.8730469,0,1.3964844,0.5488281,1.3964844,1.6191406   c0,0.7089844-0.1816406,1.2851563-0.5214844,1.8066406l0.5566406,0.1074219   c0.3144531-0.5117188,0.5214844-1.140625,0.5214844-1.9140625C18.0644531,113.40625,17.3085938,112.6503906,16.0761719,112.6503906    M13.046875,118.5898438c0.9785156,0,1.3769531,0.4414063,1.3769531,1.421875v1.5371094h-2.6972656v-1.5917969   C11.7265625,119.0136719,12.1015625,118.5898438,13.046875,118.5898438 M13.0214844,117.9785156   c-1.2324219,0-1.8261719,0.6191406-1.8261719,1.9785156v2.1855469h6.7441406v-0.59375h-3.03125v-1.5644531l3.03125-1.7265625   v-0.71875l-3.1386719,1.8789063C14.6914063,118.4824219,14.1152344,117.9785156,13.0214844,117.9785156 M17.3808594,126.9160156   H14.65625v-2.9589844h-0.5058594v2.9589844h-2.3964844v-3.4179688l-0.5605469,0.0273438V127.5H17.9375v-4.1367188   l-0.5585938-0.0253906v3.578125H17.3808594z M11.1953125,129.21875l5.4941406,1.9238281l0.6816406,0.2265625v0.0253906   l-0.6914063,0.2265625l-5.484375,1.9238281v0.65625l6.7441406-2.4570313v-0.6894531l-6.7441406-2.4550781V129.21875   L11.1953125,129.21875z M17.9394531,135.3457031h-6.7441406V135.9375h6.7441406V135.3457031z M17.9394531,137.6171875h-6.7441406   v0.53125l4.9726563-0.0117188l0.71875-0.0175781l0.0078125,0.0175781l-0.6113281,0.3964844l-5.0878906,3.3730469v0.5839844   h6.7441406v-0.5410156h-5.0898438l-0.7285156,0.0117188l-0.0097656-0.0195313l0.6113281-0.3964844l5.2167969-3.4882813V137.6171875   z M11.1953125,144.0175781v0.5957031h4.3066406c1.3652344,0,1.9882813,0.6289063,1.9882813,1.8886719   c0,1.2675781-0.6035156,1.8964844-1.9882813,1.8964844h-4.3066406v0.59375h4.3066406   c1.8066406,0,2.5625-0.9179688,2.5625-2.4902344c0-1.5664063-0.7558594-2.4824219-2.5625-2.4824219h-4.3066406V144.0175781z"/>
        <path class="st0"
              d="M7.8613281,99.6464844H1.1152344v1.0976563h3.8144531l0.71875-0.0175781l0.0078125,0.0175781   l-0.6015625,0.4023438l-3.9394531,2.6914063v1.0761719h6.7460938v-1.1054688h-3.984375l-0.7285156,0.0097656l-0.0097656-0.0195313   L3.75,103.3964844l4.109375-2.8769531v-0.8730469H7.8613281z M6.7519531,109.015625H4.8847656v-2.6269531H3.8652344v2.6269531   h-1.625v-3.09375l-1.125,0.0175781v4.3183594h6.7460938v-4.453125l-1.1074219-0.0253906v3.2363281H6.7519531z    M7.8613281,111.4941406H1.1152344v1.2382813h2.7070313v2.7441406H1.1152344v1.2402344h6.7460938v-1.2402344H4.9648438v-2.7441406   h2.8964844V111.4941406z M1.296875,117.5800781C1.1347656,117.9589844,1,118.5976563,1,119.1445313   c0,2.1035156,1.1503906,3.0488281,3.4335938,3.0488281c2.4277344,0,3.5507813-0.953125,3.5507813-2.9785156   c0-0.5839844-0.1601563-1.2207031-0.375-1.6621094l-1.0351563,0.1445313   c0.1699219,0.3867188,0.2871094,0.8359375,0.2871094,1.3574219c0,1.3222656-0.5664063,1.8359375-2.4199219,1.8359375   c-1.7441406,0-2.2988281-0.4960938-2.2988281-1.8085938c0-0.5234375,0.1035156-1.015625,0.2421875-1.3671875L1.296875,117.5800781z    M2.0253906,125.5800781v-0.0273438l0.7011719-0.1894531l2.6347656-0.8105469v2.0507813l-2.6347656-0.8183594   L2.0253906,125.5800781z M7.8613281,123.7890625v-1.3925781l-6.7460938,2.4179688v1.4824219l6.7460938,2.4023438v-1.3222656   l-1.4492188-0.4492188v-2.6972656L7.8613281,123.7890625z M2.0253906,132.3105469v-0.0273438l0.7011719-0.1875l2.6347656-0.8085938   v2.0488281l-2.6347656-0.8183594L2.0253906,132.3105469z M7.8613281,130.5195313v-1.3925781l-6.7460938,2.4179688v1.4863281   l6.7460938,2.3984375v-1.3242188l-1.4492188-0.4472656v-2.6972656L7.8613281,130.5195313z M7.8613281,138.6308594H1.1152344   v1.2402344h2.7070313v2.7421875H1.1152344v1.2402344h6.7460938v-1.2402344H4.9648438v-2.7421875h2.8964844V138.6308594z    M2.2675781,144.6660156l-1.1523438,0.0253906V149h6.7460938v-1.2402344H5.0820313V145.1875l-1.0859375-0.0097656v2.5820313   H2.2675781V144.6660156z"/>
</g>
</svg>
